# xmcd CD database file
#
# Track frame offsets:
#	150
#	13277
#	29425
#	42326
#	62728
#	75029
#	96706
#	110354
#	120030
#	131451
#	143565
#	157816
#	168243
#	182794
#	192002
#
# Disc length: 2720 seconds
#
# Revision: 0
# Processed by: cddbd v1.5.1PL2 Copyright (c) Steve Scherf et al.
# Submitted via: CDex 1.51
#
DISCID=b50a9e0f
DTITLE=Alfie Smith - Flesh and Bone
DYEAR=2005
DGENRE=Blues
TTITLE0=The Reaper
TTITLE1=How Can I Find My Way Home
TTITLE2=Home Town Blues
TTITLE3=St. James Infirmary
TTITLE4=Future Blues
TTITLE5=Amazing Grace - House Of The Rising Sun
TTITLE6=Northern Star
TTITLE7=Nobody's Fault But Mine
TTITLE8=Flesh and Bone
TTITLE9=Soul Of A Man
TTITLE10=Delia
TTITLE11=Slide On Over
TTITLE12=Death Don't Have No Mercy
TTITLE13=Deep Blue Heart
TTITLE14=Train Song
EXTD=YEAR: 2005
EXTT0=
EXTT1=
EXTT2=
EXTT3=
EXTT4=
EXTT5=
EXTT6=
EXTT7=
EXTT8=
EXTT9=
EXTT10=
EXTT11=
EXTT12=
EXTT13=
EXTT14=
PLAYORDER=
